<?xml version="1.0" encoding="UTF-8"?> 
<svg xmlns="http://www.w3.org/2000/svg" xmlns:xlink="http://www.w3.org/1999/xlink" viewBox="0 0 200 200" width="200" height="200">
<path class="petal" d="M100 100 C 20 150 20 50 100 100" fill="#f7e6f8" stroke="none" opacity=".50"/>
<path class="petal" d="M100 100 C 75 20 0 90 100 100" fill="#f7e6f8" stroke="none" opacity=".50"/>
<path class="petal" d="M100 100 C 120 0 30 50 100 100" fill="#f7e6f8" stroke="none" opacity=".50"/>
<path class="petal" d="M100 100 C 155 50 80 -10 100 100" fill="#f7e6f8" stroke="none" opacity=".50"/>
<path class="petal" d="M100 100 C 200 75 130 -5 100 100" fill="#f7e6f8" stroke="none" opacity=".50"/>
<path class="petal" d="M100 100 C 220 120 165 45 100 100" fill="#f7e6f8" stroke="none" opacity=".50"/>
<path class="petal" d="M100 100 C 195 195 175 75 100 100" fill="#f7e6f8" stroke="none" opacity=".50"/>
<path class="petal" d="M100 100 C 95 177 197 150 100 100" fill="#f7e6f8" stroke="none" opacity=".50"/>
<path class="petal" d="M100 100 C 60 170 145 165 100 100" fill="#f7e6f8" stroke="none" opacity=".50"/>
<path class="petal" d="M100 100 C 0 165 110 165 100 100" fill="#f7e6f8" stroke="none" opacity=".50"/>
<path class="petal" d="M100 100 C 0 100 50 175 100 100" fill="#f7e6f8" stroke="none" opacity=".50"/>
</svg>